<svg width="177" height="53" viewBox="0 0 177 53" fill="none" xmlns="http://www.w3.org/2000/svg">
<path d="M7.312 26.088H8.912C12.752 26.088 15.4613 25.6187 17.04 24.68C19.0453 23.528 20.048 21.416 20.048 18.344C20.048 13.3093 17.68 10.792 12.944 10.792H7.312V26.088ZM0.336 4.264H12.368C17.0613 4.264 20.6453 5.43733 23.12 7.784C25.7653 10.1733 27.088 13.6933 27.088 18.344C27.088 22.7813 25.6373 26.3227 22.736 28.968C19.9627 31.4 16.3573 32.616 11.92 32.616H7.312V52.008H0.336V4.264ZM53.835 52.008H46.987V16.168H53.835V52.008ZM53.835 10.024H46.987V2.024H53.835V10.024ZM103.612 51.752H95.74L87.996 39.08L79.868 51.752H72.188L84.22 33.512L73.276 17.192H81.276L88.124 28.008L95.1 17.192H102.652L91.9 33.512L103.612 51.752ZM149.088 36.968H127.52C127.648 40.04 128.48 42.4293 130.016 44.136C131.594 45.9707 133.77 46.888 136.544 46.888C140.384 46.888 143.776 46.056 146.72 44.392V50.856C143.306 52.136 139.85 52.776 136.352 52.776C130.848 52.776 126.752 51.0267 124.064 47.528C121.717 44.4133 120.544 40.0613 120.544 34.472C120.544 29.096 121.845 24.7227 124.448 21.352C127.05 17.9813 130.549 16.296 134.944 16.296C139.85 16.296 143.52 18.0453 145.952 21.544C148.042 24.5307 149.088 28.4773 149.088 33.384V36.968ZM142.112 30.888C142.112 28.4987 141.493 26.4933 140.256 24.872C138.976 23.1653 137.29 22.312 135.2 22.312C133.066 22.312 131.253 23.1867 129.76 24.936C128.266 26.6853 127.52 28.6693 127.52 30.888H142.112ZM176.666 51.752H169.69V0.807999H176.666V51.752Z" fill="#2A2625"/>
</svg>
